<svg width="240" height="177" viewBox="0 0 240 177" fill="none" xmlns="http://www.w3.org/2000/svg">
<g clip-path="url(#clip0_1186_11598)">
<path d="M238.926 38.4788C235.147 19.2452 221.244 5.32895 201.734 1.24897C183.115 -2.6429 160.491 2.61593 138.03 16.0556C131.961 19.6883 125.945 23.8561 120.001 28.538C114.056 23.8561 108.045 19.6883 101.971 16.0556C79.5103 2.61593 56.8823 -2.6429 38.2673 1.24897C18.7578 5.32477 4.85829 19.2452 1.07929 38.4788C-2.54504 56.9223 3.01477 78.3799 17.1609 100.536C32.5654 124.664 57.0704 148.179 90.0029 170.422L98.7899 176.358L135.953 132.649L117.898 117.299L94.5719 144.734C36.4196 102.956 20.1749 64.1961 24.3302 43.0479C26.2991 33.036 32.7953 26.6026 43.1165 24.4455C50.5115 22.8988 66.4134 22.3972 89.8064 36.3928C93.8446 38.8091 97.8953 41.543 101.942 44.5779C89.8649 56.5461 78.1266 70.7257 66.8147 87.0457L86.2907 100.544C97.0676 84.9931 108.425 71.4029 119.997 60.137C131.568 71.4071 142.926 84.9973 153.702 100.544L173.178 87.0457C161.867 70.7257 150.132 56.5461 138.056 44.5779C142.102 41.543 146.153 38.8091 150.191 36.3928C173.584 22.3972 189.486 22.903 196.881 24.4455C207.206 26.6026 213.702 33.036 215.667 43.0479C220.023 65.2119 201.964 106.731 136.735 150.787L149.999 170.422C182.931 148.179 207.44 124.668 222.841 100.536C236.983 78.3799 242.542 56.9223 238.922 38.4788H238.926Z" fill="url(#paint0_linear_1186_11598)"/>
</g>
<defs>
<linearGradient id="paint0_linear_1186_11598" x1="120" y1="-0.00195313" x2="120" y2="176.358" gradientUnits="userSpaceOnUse">
<stop stop-color="#E6E6E6"/>
<stop offset="1" stop-color="#E6E6E6" stop-opacity="0"/>
</linearGradient>
<clipPath id="clip0_1186_11598">
<rect width="240" height="176.359" fill="white"/>
</clipPath>
</defs>
</svg>
