<svg width="28" height="28" viewBox="0 0 28 28" fill="none" xmlns="http://www.w3.org/2000/svg">
<path d="M14 0C6.26762 0 0 6.26762 0 14C0 21.7315 6.26762 28 14 28C21.7324 28 28 21.7315 28 14C28 6.26762 21.7324 0 14 0Z" fill="#AE8779"/>
<path d="M21.2576 20.0724V14.7025C21.2576 11.8255 19.722 10.4868 17.6736 10.4868C16.0208 10.4868 15.2805 11.3959 14.8684 12.0338V10.7064H11.7551C11.7962 11.5858 11.7551 20.0724 11.7551 20.0724H14.8684V14.8417C14.8684 14.5625 14.8885 14.2825 14.9707 14.083C15.1956 13.5239 15.7075 12.9447 16.5676 12.9447C17.6946 12.9447 18.1452 13.803 18.1452 15.0622V20.0733L21.2576 20.0724ZM8.47475 9.42803C9.55975 9.42803 10.2361 8.70791 10.2361 7.80928C10.216 6.89053 9.55975 6.19141 8.49488 6.19141C7.43 6.19141 6.73438 6.89053 6.73438 7.80928C6.73438 8.70878 7.40987 9.42803 8.4555 9.42803H8.47475ZM10.0314 20.0724V10.7064H6.919V20.0724H10.0314Z" fill="white"/>
</svg>
