<svg width="84" height="59" viewBox="0 0 84 59" fill="none" xmlns="http://www.w3.org/2000/svg">
<g clip-path="url(#clip0_965_13880)">
<path d="M65.6939 1.39709C67.4481 1.49072 69.0967 1.96739 70.5829 2.81845C71.4363 3.29912 72.7292 4.43898 73.3339 5.22473C73.8158 5.86224 74.4605 6.9585 74.7233 7.59839C76.0952 10.9129 75.9508 14.7754 74.3019 18.8968C73.767 20.2425 73.4594 20.8773 72.6768 22.2649C71.4757 24.4076 70.4654 25.8546 68.8931 27.6968C66.555 30.4369 64.1033 32.5206 61.1655 34.2741C58.023 36.1481 54.4394 37.4318 51.8699 37.6004C50.8843 37.6612 50.9731 37.5863 52.4434 37.0978C55.1694 36.1919 56.72 35.5038 58.908 34.2398C61.0175 33.0188 62.8187 31.6872 64.5738 30.0455C67.8365 26.9919 70.5784 23.0968 72.2845 19.0779C73.3864 16.4909 73.8334 14.4058 73.7713 12.2049C73.685 9.279 72.5898 6.81016 70.6711 5.218C67.7496 2.792 63.4543 2.63951 59.6633 4.8332C58.2467 5.65001 57.1741 6.54991 55.9242 7.97555C54.3896 9.72753 53.378 11.4314 52.3281 14.0462C51.1659 16.9443 50.4913 19.734 49.5523 25.6364C48.6867 31.0514 48.0549 34.1953 47.8407 34.0846C47.7238 34.0236 47.829 32.2562 48.1779 28.361C48.6488 23.1295 49.0019 20.4931 49.5583 17.8994C50.5494 13.3153 52.2156 9.63115 54.5682 6.82746C56.7526 4.22315 59.3857 2.50292 62.3659 1.74258C63.1847 1.53026 64.8956 1.35745 65.6939 1.39709Z" fill="url(#paint0_linear_965_13880)"/>
<path d="M34.6856 5.82482C37.3015 5.87859 39.9614 7.31383 41.989 9.76933C43.7847 11.9462 45.2245 15.0619 45.9483 18.3328C46.2759 19.8328 46.3863 20.6271 46.5047 22.3668C46.7008 25.3416 46.5587 27.7631 46.0457 30.2599C45.8095 31.3911 45.4688 32.4604 45.3441 32.4689C45.2506 32.4753 45.2486 31.9868 45.3388 30.4584C45.5482 26.7231 45.4106 23.6879 44.8957 20.8162C43.8353 14.8996 40.9264 10.0797 37.4243 8.41987C36.8611 8.15124 36.2014 7.93929 35.5481 7.82087C35.0848 7.73337 34.8337 7.7254 34.0855 7.77632C33.2815 7.83729 33.1206 7.86703 32.632 8.05063C29.6518 9.18056 28.0101 12.5811 28.5912 16.4255C29.1837 20.3444 31.325 23.8258 35.1577 27.1232C36.7876 28.522 37.7427 29.2087 40.0662 30.6731C41.4669 31.555 41.6512 31.6866 41.5815 31.7665C41.4657 31.9059 39.4732 31.1645 38.201 30.5119C34.916 28.8185 32.0782 26.5183 30.0716 23.9111C28.5527 21.9346 27.4582 19.6599 26.9329 17.3716C26.7016 16.3662 26.5914 14.5633 26.7073 13.5969C27.0084 10.9328 28.1405 8.78852 29.9844 7.34751C31.2635 6.35212 32.9856 5.79016 34.6856 5.82482Z" fill="url(#paint1_linear_965_13880)"/>
<path d="M16.6818 7.46297C17.1712 7.47352 18.2656 7.63083 18.6117 7.7451C19.1432 7.91565 19.9341 8.30661 20.2916 8.58924C21.0724 9.20015 21.5066 10.5175 21.2627 11.5364C21.092 12.2496 20.6876 12.6593 19.991 12.8257C18.8498 13.085 17.4805 12.2949 16.984 11.0758C16.7888 10.6004 16.7645 9.87542 16.9352 9.43782C17.0727 9.06513 17.5263 8.45793 17.7216 8.382C18.118 8.22347 17.2822 8.09241 16.3544 8.17434C14.4417 8.32955 12.9428 9.40881 12.1736 11.1776C11.811 12.0167 11.6852 12.7456 11.7137 13.8087C11.7434 14.8904 11.9079 15.6497 12.3359 16.6918C13.5235 19.5991 16.4917 22.805 19.8679 24.8242C22.7218 26.5344 25.5996 27.4912 29.2255 27.9336C29.8127 28.0001 30.3258 28.0842 30.3591 28.1133C30.4648 28.1938 28.9163 28.2679 28.1425 28.2203C21.9582 27.833 15.8589 24.2764 12.5117 19.0917C10.2581 15.6179 10.186 11.7952 12.3241 9.33815C13.1323 8.41866 14.2186 7.81226 15.5295 7.56018C16.0428 7.4626 16.18 7.45327 16.6818 7.46297Z" fill="url(#paint2_linear_965_13880)"/>
<path d="M8.39559 17.7933C9.59576 18.0311 10.4329 19.1017 10.3097 20.2377C10.2596 20.6984 10.0809 21.0175 9.7233 21.2862C9.1996 21.6914 8.83268 21.8229 8.13472 21.8766C7.5361 21.9174 7.4916 21.9079 7.02779 21.7202C6.45415 21.4836 5.93014 21.0557 5.66222 20.6166C5.42135 20.207 5.32988 19.5993 5.44487 19.1718C5.48996 19.0058 5.52385 18.8594 5.523 18.847C5.52215 18.8345 5.24465 18.9912 4.90111 19.19C4.37189 19.5141 4.20621 19.657 3.7002 20.2302C3.17719 20.8295 3.08675 20.9735 2.84604 21.5788C2.43791 22.5775 2.38769 22.9443 2.47752 24.1723C2.54116 25.1076 2.56963 25.2497 2.75408 25.7509C4.27331 29.757 8.56294 31.8518 15.5963 32.0122C19.6371 32.1068 23.2757 31.5397 27.8693 30.0933C28.4092 29.925 28.8642 29.8001 28.8838 29.8113C28.9566 29.8689 28.6555 30.0461 27.9151 30.3971C26.0512 31.2694 23.6389 31.9974 20.9842 32.4787C19.635 32.7209 16.1244 32.9598 14.7486 32.9031C13.5487 32.8532 12.0418 32.7114 11.1548 32.565C6.18183 31.7508 2.82957 29.2538 1.77059 25.5672C1.71209 25.3519 1.644 24.8116 1.60666 24.2628C1.559 23.4705 1.56782 23.2318 1.66482 22.7241C1.93852 21.3148 2.59341 20.1677 3.63613 19.2886C4.42969 18.6144 5.29931 18.2295 6.67627 17.9353C7.72656 17.7198 7.92567 17.6999 8.39559 17.7933Z" fill="url(#paint3_linear_965_13880)"/>
<path d="M60.9608 17.5357C63.0525 17.8945 64.4243 19.9185 64.1781 22.2845C63.9749 24.1776 63.0446 26.0639 61.3634 27.9637C59.8338 29.6965 57.6911 31.5337 55.5395 32.9643C54.6107 33.5851 52.8394 34.6202 52.7861 34.5737C52.6796 34.4808 52.4538 32.9112 52.3593 31.6146C52.1956 29.3017 52.3268 27.6389 52.8158 25.6198C53.579 22.4732 55.247 19.8289 57.3504 18.4266C58.4532 17.6938 59.8517 17.3481 60.9608 17.5357Z" fill="url(#paint4_linear_965_13880)"/>
<path d="M40.2465 19.1197C40.793 19.2329 41.2352 19.4722 41.7755 19.9553C42.2018 20.3273 42.3858 20.5465 42.6754 21.028C43.2546 21.9909 43.5156 22.7875 43.7651 24.3366C44.0678 26.2079 44.0883 27.7977 43.8462 29.8563L43.7632 30.5699L43.4654 30.4273C40.5499 29.0094 38.3237 26.6739 37.4683 24.1387C37.2947 23.6117 37.2553 23.4014 37.2001 22.5908C37.1424 21.7428 37.146 21.611 37.2685 21.2017C37.693 19.7069 38.9187 18.8467 40.2465 19.1197Z" fill="url(#paint5_linear_965_13880)"/>
<path d="M33.8334 28.9101C34.5813 29.2225 35.3392 30.1419 35.5545 31.0043C35.6135 31.2258 35.6832 31.4215 35.7156 31.4381C35.7485 31.4609 35.9755 31.4831 36.2266 31.491C36.8228 31.5068 37.7776 31.6361 38.2874 31.7643C39.9256 32.179 41.0176 33.2198 41.1282 34.4777C41.1731 35.0447 41.0551 35.4286 40.728 35.7766C40.4062 36.1117 40.1199 36.2314 39.6244 36.2213C38.8344 36.2124 38.3725 35.8679 37.2156 34.4244C36.8395 33.9614 36.2907 33.3535 35.9902 33.0795L35.4553 32.5834L35.2826 32.8082C34.6614 33.621 33.3015 33.3376 32.4036 32.2022C31.4857 31.0494 31.5284 29.4678 32.4893 28.9514C32.8641 28.7505 33.4078 28.7323 33.8334 28.9101Z" fill="url(#paint6_linear_965_13880)"/>
<path d="M42.9932 34.928C43.5933 35.0939 44.2451 35.9266 44.3646 36.6702C44.4724 37.3332 44.2016 37.8653 43.6739 38.0265C43.0472 38.2069 42.3099 37.7747 41.8589 36.9472C41.4283 36.1433 41.5544 35.3266 42.1647 34.9969C42.4609 34.839 42.6288 34.8213 42.9932 34.928Z" fill="url(#paint7_linear_965_13880)"/>
<path d="M69.2623 34.8567C73.8704 34.8188 77.7276 35.9909 80.1365 38.1573C80.8304 38.7804 80.9924 38.9511 81.4122 39.5051C83.2028 41.8828 83.5679 44.6707 82.4319 47.3101C80.4738 51.8598 74.6285 54.3374 68.287 53.2968C64.4418 52.6689 60.7526 50.6522 58.092 47.7323C56.3249 45.7916 55.2795 43.8706 54.7746 41.6059C54.6583 41.0939 54.8707 41.3613 55.6992 42.7646C56.1459 43.5297 56.7475 44.4535 57.0361 44.8286C58.3019 46.4902 59.7526 47.8323 61.5881 49.0292C64.8925 51.1911 69.0122 52.1699 72.6921 51.6564C76.7011 51.1017 79.5872 49.2327 80.7142 46.4623C81.1165 45.4702 81.1915 45.0078 81.1147 43.8791C81.0405 42.7879 80.956 42.4679 80.4954 41.5909C79.2287 39.1776 76.5865 37.5407 72.8692 36.8602C71.1688 36.5437 69.8911 36.4552 67.8715 36.5112C64.2887 36.611 60.1414 37.3442 54.8036 38.81C52.7743 39.3678 52.5644 39.4134 52.5942 39.2986C52.6231 39.1714 53.1104 38.8751 53.9658 38.4661C57.3337 36.865 62.0742 35.5526 66.2938 35.0525C67.6609 34.8905 68.0912 34.8613 69.2623 34.8567Z" fill="url(#paint8_linear_965_13880)"/>
<path d="M46.3808 37.3787C47.0327 37.66 47.5725 38.4126 47.6738 39.1637C47.7414 39.6979 47.6807 40.0027 47.4392 40.3198C47.008 40.8879 46.1939 40.7992 45.4766 40.1088C44.8992 39.5405 44.6242 38.8137 44.7647 38.209C44.8081 38.0182 44.8868 37.7935 44.9503 37.7141C45.2715 37.2787 45.8451 37.1457 46.3808 37.3787Z" fill="url(#paint9_linear_965_13880)"/>
<path d="M61.9046 39.1419C64.1461 39.3088 65.9984 40.016 67.3063 41.1924C67.8066 41.6407 68.1307 42.076 68.3963 42.6655C68.551 43.0058 68.5879 43.1787 68.6314 43.727C68.673 44.3381 68.6656 44.4138 68.5062 44.8318C67.6602 47.0381 64.7027 47.396 61.6837 45.6532C59.8966 44.6158 57.6265 42.6467 56.1373 40.8311C55.8636 40.4926 55.6437 40.2069 55.6554 40.1936C55.7662 40.0733 57.6887 39.5102 58.5977 39.3356C59.2968 39.2066 61.2369 39.0871 61.9046 39.1419Z" fill="url(#paint10_linear_965_13880)"/>
<path d="M49.1163 40.663C50.6392 41.3174 51.8112 42.5219 53.1851 44.8527C53.851 45.9851 54.0254 46.4306 54.0834 47.1909C54.1283 47.7579 54.1155 47.8465 53.9759 48.188C53.4932 49.3797 52.1734 49.2252 51.1284 47.8618C50.709 47.314 49.7551 45.6311 49.4276 44.8704C48.9271 43.6828 48.5863 42.2652 48.5015 41.0181C48.4735 40.6065 48.4824 40.4619 48.5448 40.4576C48.5884 40.4546 48.8455 40.5499 49.1163 40.663Z" fill="url(#paint11_linear_965_13880)"/>
</g>
<defs>
<linearGradient id="paint0_linear_965_13880" x1="62.6764" y1="36.8651" x2="60.2848" y2="1.71946" gradientUnits="userSpaceOnUse">
<stop stop-color="#07B6B0"/>
<stop offset="1" stop-color="#069D98"/>
</linearGradient>
<linearGradient id="paint1_linear_965_13880" x1="37.5552" y1="32.9989" x2="35.6994" y2="5.72707" gradientUnits="userSpaceOnUse">
<stop stop-color="#07B6B0"/>
<stop offset="1" stop-color="#069D98"/>
</linearGradient>
<linearGradient id="paint2_linear_965_13880" x1="21.0948" y1="28.795" x2="19.6275" y2="7.23167" gradientUnits="userSpaceOnUse">
<stop stop-color="#07B6B0"/>
<stop offset="1" stop-color="#069D98"/>
</linearGradient>
<linearGradient id="paint3_linear_965_13880" x1="15.6525" y1="32.9543" x2="14.5861" y2="17.2832" gradientUnits="userSpaceOnUse">
<stop stop-color="#07B6B0"/>
<stop offset="1" stop-color="#069D98"/>
</linearGradient>
<linearGradient id="paint4_linear_965_13880" x1="58.7984" y1="34.1666" x2="57.6749" y2="17.6563" gradientUnits="userSpaceOnUse">
<stop stop-color="#07B6B0"/>
<stop offset="1" stop-color="#069D98"/>
</linearGradient>
<linearGradient id="paint5_linear_965_13880" x1="41.0221" y1="30.7564" x2="40.2243" y2="19.0325" gradientUnits="userSpaceOnUse">
<stop stop-color="#07B6B0"/>
<stop offset="1" stop-color="#069D98"/>
</linearGradient>
<linearGradient id="paint6_linear_965_13880" x1="36.7035" y1="36.4298" x2="36.1695" y2="28.5816" gradientUnits="userSpaceOnUse">
<stop stop-color="#07B6B0"/>
<stop offset="1" stop-color="#069D98"/>
</linearGradient>
<linearGradient id="paint7_linear_965_13880" x1="43.1057" y1="38.0884" x2="42.8847" y2="34.8405" gradientUnits="userSpaceOnUse">
<stop stop-color="#07B6B0"/>
<stop offset="1" stop-color="#069D98"/>
</linearGradient>
<linearGradient id="paint8_linear_965_13880" x1="68.6583" y1="53.7405" x2="67.3781" y2="34.9278" gradientUnits="userSpaceOnUse">
<stop stop-color="#07B6B0"/>
<stop offset="1" stop-color="#069D98"/>
</linearGradient>
<linearGradient id="paint9_linear_965_13880" x1="46.3299" y1="40.7197" x2="46.0935" y2="37.2461" gradientUnits="userSpaceOnUse">
<stop stop-color="#07B6B0"/>
<stop offset="1" stop-color="#069D98"/>
</linearGradient>
<linearGradient id="paint10_linear_965_13880" x1="62.4835" y1="46.9626" x2="61.9454" y2="39.0543" gradientUnits="userSpaceOnUse">
<stop stop-color="#07B6B0"/>
<stop offset="1" stop-color="#069D98"/>
</linearGradient>
<linearGradient id="paint11_linear_965_13880" x1="51.6316" y1="49.0811" x2="51.0333" y2="40.2883" gradientUnits="userSpaceOnUse">
<stop stop-color="#07B6B0"/>
<stop offset="1" stop-color="#069D98"/>
</linearGradient>
<clipPath id="clip0_965_13880">
<rect width="80" height="52.5" fill="white" transform="matrix(-0.997693 0.0678914 0.0678914 0.997693 80.125 0.34375)"/>
</clipPath>
</defs>
</svg>
