<svg width="180" height="180" viewBox="0 0 180 180" fill="none" xmlns="http://www.w3.org/2000/svg">
<g clip-path="url(#clip0_1186_11569)">
<path d="M116 0H64C28.6538 0 0 28.6538 0 64V116C0 151.346 28.6538 180 64 180H116C151.346 180 180 151.346 180 116V64C180 28.6538 151.346 0 116 0Z" fill="white"/>
<path d="M9.8593 2.89062C6.01061 2.89062 2.89062 6.01061 2.89062 9.8593H9.8593V2.89062Z" fill="black"/>
<path d="M16.828 2.89062H9.8593V9.8593H16.828V2.89062Z" fill="black"/>
<path d="M23.7966 2.89062H16.828V9.8593H23.7966V2.89062Z" fill="black"/>
<path d="M30.7653 2.89062H23.7966V9.8593H30.7653V2.89062Z" fill="black"/>
<path d="M37.734 2.89062H30.7653V9.8593H37.734V2.89062Z" fill="black"/>
<path d="M44.7027 2.89062H37.734V9.8593H44.7027V2.89062Z" fill="black"/>
<path d="M51.6713 9.8593C51.6713 6.01061 48.5514 2.89062 44.7027 2.89062V9.8593H51.6713Z" fill="black"/>
<path d="M65.6087 2.89062H62.1244C60.2 2.89062 58.64 4.45062 58.64 6.37496C58.64 8.29931 60.2 9.8593 62.1244 9.8593H65.6087V2.89062Z" fill="black"/>
<path d="M72.5774 2.89062H65.6087V9.8593H72.5774V2.89062Z" fill="black"/>
<path d="M79.546 2.89062H72.5774V9.8593H79.546V2.89062Z" fill="black"/>
<path d="M86.5147 9.8593C86.5147 6.01061 83.3947 2.89062 79.546 2.89062V9.8593H86.5147Z" fill="black"/>
<path d="M114.389 6.37496C114.389 4.45062 112.829 2.89062 110.905 2.89062C108.981 2.89062 107.421 4.45062 107.421 6.37496V9.8593H110.905C112.829 9.8593 114.389 8.29931 114.389 6.37496Z" fill="black"/>
<path d="M135.295 2.89062C131.447 2.89062 128.327 6.01061 128.327 9.8593H135.295V2.89062Z" fill="black"/>
<path d="M142.264 2.89062H135.295V9.8593H142.264V2.89062Z" fill="black"/>
<path d="M149.233 2.89062H142.264V9.8593H149.233V2.89062Z" fill="black"/>
<path d="M156.201 2.89062H149.233V9.8593H156.201V2.89062Z" fill="black"/>
<path d="M163.17 2.89062H156.201V9.8593H163.17V2.89062Z" fill="black"/>
<path d="M170.139 2.89062H163.17V9.8593H170.139V2.89062Z" fill="black"/>
<path d="M177.107 9.8593C177.107 6.01061 173.988 2.89062 170.139 2.89062V9.8593H177.107Z" fill="black"/>
<path d="M9.8593 9.8593H2.89062V16.828H9.8593V9.8593Z" fill="black"/>
<path d="M51.6713 9.8593H44.7027L44.7027 16.828H51.6713V9.8593Z" fill="black"/>
<path d="M72.5774 9.8593H65.6087V16.828H72.5774V9.8593Z" fill="black"/>
<path d="M93.4834 16.828C93.4834 12.9793 90.3634 9.8593 86.5147 9.8593V16.828H93.4834Z" fill="black"/>
<path d="M107.421 9.8593C103.572 9.8593 100.452 12.9793 100.452 16.828H107.421L107.421 9.8593Z" fill="black"/>
<path d="M135.295 9.8593H128.327V16.828H135.295V9.8593Z" fill="black"/>
<path d="M177.107 9.8593H170.139V16.828H177.107V9.8593Z" fill="black"/>
<path d="M9.8593 16.828H2.89062V23.7966H9.8593V16.828Z" fill="black"/>
<path d="M23.7966 16.828C19.948 16.828 16.828 19.948 16.828 23.7966H23.7966V16.828Z" fill="black"/>
<path d="M30.7653 16.828H23.7966V23.7966H30.7653V16.828Z" fill="black"/>
<path d="M37.734 23.7966C37.734 19.948 34.614 16.828 30.7653 16.828V23.7966H37.734Z" fill="black"/>
<path d="M51.6713 16.828H44.7027V23.7966H51.6713V16.828Z" fill="black"/>
<path d="M65.6087 16.828C61.76 16.828 58.64 19.948 58.64 23.7966H65.6087V16.828Z" fill="black"/>
<path d="M79.546 23.7966C79.546 19.948 76.4261 16.828 72.5774 16.828V23.7966H79.546Z" fill="black"/>
<path d="M93.4834 16.828H86.5147V23.7966H93.4834V16.828Z" fill="black"/>
<path d="M107.421 16.828H100.452V23.7966H107.421V16.828Z" fill="black"/>
<path d="M114.389 16.828H107.421V23.7966H114.389V16.828Z" fill="black"/>
<path d="M121.358 23.7966C121.358 19.948 118.238 16.828 114.389 16.828V23.7966H121.358Z" fill="black"/>
<path d="M135.295 16.828H128.327V23.7966H135.295V16.828Z" fill="black"/>
<path d="M149.233 16.828C145.384 16.828 142.264 19.948 142.264 23.7966H149.233V16.828Z" fill="black"/>
<path d="M156.201 16.828H149.233V23.7966H156.201V16.828Z" fill="black"/>
<path d="M163.17 23.7966C163.17 19.948 160.05 16.828 156.201 16.828V23.7966H163.17Z" fill="black"/>
<path d="M177.107 16.828H170.139V23.7966H177.107V16.828Z" fill="black"/>
<path d="M9.8593 23.7966H2.89062V30.7653H9.8593V23.7966Z" fill="black"/>
<path d="M23.7966 23.7966H16.828V30.7653H23.7966V23.7966Z" fill="black"/>
<path d="M30.7653 23.7966H23.7966V30.7653H30.7653V23.7966Z" fill="black"/>
<path d="M37.734 23.7966H30.7653V30.7653H37.734V23.7966Z" fill="black"/>
<path d="M51.6713 23.7966H44.7027V30.7653H51.6713V23.7966Z" fill="black"/>
<path d="M65.6087 23.7966H58.64V27.281C58.64 29.2053 60.2 30.7653 62.1244 30.7653C64.0487 30.7653 65.6087 29.2053 65.6087 27.281V23.7966Z" fill="black"/>
<path d="M79.546 23.7966H72.5774V30.7653H79.546V23.7966Z" fill="black"/>
<path d="M93.4834 23.7966H86.5147V30.7653H93.4834V23.7966Z" fill="black"/>
<path d="M100.452 23.7966H93.4834V30.7653H100.452V23.7966Z" fill="black"/>
<path d="M121.358 23.7966H114.389V27.281C114.389 29.2053 115.949 30.7653 117.874 30.7653C119.798 30.7653 121.358 29.2053 121.358 27.281V23.7966Z" fill="black"/>
<path d="M135.295 23.7966H128.327V30.7653H135.295V23.7966Z" fill="black"/>
<path d="M149.233 23.7966H142.264V30.7653H149.233V23.7966Z" fill="black"/>
<path d="M156.201 23.7966H149.233V30.7653H156.201V23.7966Z" fill="black"/>
<path d="M163.17 23.7966H156.201V30.7653H163.17V23.7966Z" fill="black"/>
<path d="M177.107 23.7966H170.139V30.7653H177.107V23.7966Z" fill="black"/>
<path d="M9.8593 30.7653H2.89062V37.734H9.8593V30.7653Z" fill="black"/>
<path d="M23.7966 30.7653H16.828C16.828 34.614 19.948 37.734 23.7966 37.734V30.7653Z" fill="black"/>
<path d="M30.7653 30.7653H23.7966V37.734H30.7653V30.7653Z" fill="black"/>
<path d="M37.734 30.7653H30.7653V37.734C34.614 37.734 37.734 34.614 37.734 30.7653Z" fill="black"/>
<path d="M51.6713 30.7653H44.7027V37.734H51.6713V30.7653Z" fill="black"/>
<path d="M79.546 30.7653H72.5774V34.2497C72.5774 36.174 74.1374 37.734 76.0617 37.734C77.9861 37.734 79.546 36.174 79.546 34.2497V30.7653Z" fill="black"/>
<path d="M93.4834 30.7653H86.5147C86.5147 34.614 89.6347 37.734 93.4834 37.734V30.7653Z" fill="black"/>
<path d="M107.421 37.734C107.421 33.8853 104.301 30.7653 100.452 30.7653V37.734H107.421Z" fill="black"/>
<path d="M135.295 30.7653H128.327V37.734H135.295V30.7653Z" fill="black"/>
<path d="M149.233 30.7653H142.264C142.264 34.614 145.384 37.734 149.233 37.734V30.7653Z" fill="black"/>
<path d="M156.201 30.7653H149.233V37.734H156.201V30.7653Z" fill="black"/>
<path d="M163.17 30.7653H156.201V37.734C160.05 37.734 163.17 34.614 163.17 30.7653Z" fill="black"/>
<path d="M177.107 30.7653H170.139V37.734H177.107V30.7653Z" fill="black"/>
<path d="M9.8593 37.734H2.89062V44.7027H9.8593V37.734Z" fill="black"/>
<path d="M51.6713 37.734H44.7027V44.7027H51.6713V37.734Z" fill="black"/>
<path d="M65.6087 41.2183C65.6087 39.294 64.0487 37.734 62.1244 37.734C60.2 37.734 58.64 39.294 58.64 41.2183V44.7027H65.6087V41.2183Z" fill="black"/>
<path d="M100.452 37.734H93.4834V44.7027H100.452V37.734Z" fill="black"/>
<path d="M114.389 44.7027C114.389 40.854 111.269 37.734 107.421 37.734L107.421 44.7027H114.389Z" fill="black"/>
<path d="M135.295 37.734H128.327V44.7027H135.295V37.734Z" fill="black"/>
<path d="M177.107 37.734H170.139V44.7027H177.107V37.734Z" fill="black"/>
<path d="M9.8593 44.7027H2.89062C2.89062 48.5514 6.01061 51.6713 9.8593 51.6713V44.7027Z" fill="black"/>
<path d="M16.828 44.7027L9.8593 44.7027V51.6713H16.828V44.7027Z" fill="black"/>
<path d="M23.7966 44.7027H16.828V51.6713H23.7966V44.7027Z" fill="black"/>
<path d="M30.7653 44.7027H23.7966V51.6713H30.7653V44.7027Z" fill="black"/>
<path d="M37.734 44.7027H30.7653V51.6713H37.734V44.7027Z" fill="black"/>
<path d="M44.7027 44.7027L37.734 44.7027V51.6713H44.7027L44.7027 44.7027Z" fill="black"/>
<path d="M51.6713 44.7027H44.7027L44.7027 51.6713C48.5514 51.6713 51.6713 48.5514 51.6713 44.7027Z" fill="black"/>
<path d="M65.6087 44.7027H58.64V51.6713H65.6087V44.7027Z" fill="black"/>
<path d="M79.546 48.187C79.546 46.2627 77.9861 44.7027 76.0617 44.7027C74.1374 44.7027 72.5774 46.2627 72.5774 48.187V51.6713H79.546V48.187Z" fill="black"/>
<path d="M93.4834 44.7027C89.6347 44.7027 86.5147 47.8227 86.5147 51.6713H93.4834V44.7027Z" fill="black"/>
<path d="M107.421 44.7027H100.452V51.6713H107.421L107.421 44.7027Z" fill="black"/>
<path d="M121.358 51.6713C121.358 47.8227 118.238 44.7027 114.389 44.7027V51.6713H121.358Z" fill="black"/>
<path d="M135.295 44.7027H128.327C128.327 48.5514 131.447 51.6713 135.295 51.6713V44.7027Z" fill="black"/>
<path d="M142.264 44.7027L135.295 44.7027V51.6713H142.264V44.7027Z" fill="black"/>
<path d="M149.233 44.7027H142.264V51.6713H149.233V44.7027Z" fill="black"/>
<path d="M156.201 44.7027H149.233V51.6713H156.201V44.7027Z" fill="black"/>
<path d="M163.17 44.7027H156.201V51.6713H163.17V44.7027Z" fill="black"/>
<path d="M170.139 44.7027L163.17 44.7027V51.6713H170.139V44.7027Z" fill="black"/>
<path d="M177.107 44.7027H170.139V51.6713C173.988 51.6713 177.107 48.5514 177.107 44.7027Z" fill="black"/>
<path d="M65.6087 51.6713H58.64V58.64H65.6087V51.6713Z" fill="black"/>
<path d="M72.5774 51.6713H65.6087V58.64H72.5774V51.6713Z" fill="black"/>
<path d="M86.5147 51.6713H79.546V58.64H86.5147V51.6713Z" fill="black"/>
<path d="M100.452 51.6713H93.4834V58.64H100.452V51.6713Z" fill="black"/>
<path d="M107.421 51.6713H100.452V58.64H107.421V51.6713Z" fill="black"/>
<path d="M114.389 51.6713H107.421V58.64H114.389V51.6713Z" fill="black"/>
<path d="M121.358 51.6713H114.389V58.64H121.358V51.6713Z" fill="black"/>
<path d="M9.8593 58.64H6.37496C4.45062 58.64 2.89062 60.2 2.89062 62.1244C2.89062 64.0487 4.45062 65.6087 6.37496 65.6087H9.8593V58.64Z" fill="black"/>
<path d="M16.828 65.6087C16.828 61.76 13.708 58.64 9.8593 58.64V65.6087H16.828Z" fill="black"/>
<path d="M30.7653 62.1244C30.7653 60.2 29.2053 58.64 27.281 58.64C25.3566 58.64 23.7966 60.2 23.7966 62.1244C23.7966 64.0487 25.3566 65.6087 27.281 65.6087H30.7653V62.1244Z" fill="black"/>
<path d="M51.6713 58.64H48.187C46.2627 58.64 44.7027 60.2 44.7027 62.1244C44.7027 64.0487 46.2627 65.6087 48.187 65.6087H51.6713V58.64Z" fill="black"/>
<path d="M58.64 58.64H51.6713V65.6087H58.64V58.64Z" fill="black"/>
<path d="M72.5774 58.64H65.6087V65.6087H72.5774V58.64Z" fill="black"/>
<path d="M79.546 58.64H72.5774V65.6087H79.546V58.64Z" fill="black"/>
<path d="M86.5147 58.64H79.546V65.6087C83.3947 65.6087 86.5147 62.4887 86.5147 58.64Z" fill="black"/>
<path d="M100.452 58.64H93.4834V65.6087H100.452V58.64Z" fill="black"/>
<path d="M107.421 58.64H100.452V65.6087H107.421V58.64Z" fill="black"/>
<path d="M121.358 58.64H114.389V65.6087H121.358V58.64Z" fill="black"/>
<path d="M128.327 58.64H121.358V65.6087H128.327V58.64Z" fill="black"/>
<path d="M135.295 58.64H128.327V65.6087H135.295V58.64Z" fill="black"/>
<path d="M142.264 65.6087C142.264 61.76 139.144 58.64 135.295 58.64V65.6087H142.264Z" fill="black"/>
<path d="M156.201 58.64C152.353 58.64 149.233 61.76 149.233 65.6087H156.201V58.64Z" fill="black"/>
<path d="M163.17 65.6087C163.17 61.76 160.05 58.64 156.201 58.64V65.6087H163.17Z" fill="black"/>
<path d="M177.107 62.1244C177.107 60.2 175.548 58.64 173.623 58.64C171.699 58.64 170.139 60.2 170.139 62.1244V65.6087H173.623C175.548 65.6087 177.107 64.0487 177.107 62.1244Z" fill="black"/>
<path d="M16.828 65.6087H9.8593V72.5774H16.828V65.6087Z" fill="black"/>
<path d="M37.734 72.5774C37.734 68.7287 34.614 65.6087 30.7653 65.6087V72.5774H37.734Z" fill="black"/>
<path d="M58.64 65.6087H51.6713V72.5774H58.64V65.6087Z" fill="black"/>
<path d="M65.6087 65.6087H58.64V72.5774H65.6087V65.6087Z" fill="black"/>
<path d="M72.5774 65.6087H65.6087V72.5774H72.5774V65.6087Z" fill="black"/>
<path d="M100.452 65.6087H93.4834V72.5774H100.452V65.6087Z" fill="black"/>
<path d="M107.421 65.6087H100.452V72.5774H107.421V65.6087Z" fill="black"/>
<path d="M121.358 65.6087H114.389V72.5774H121.358V65.6087Z" fill="black"/>
<path d="M149.233 65.6087H142.264V72.5774H149.233V65.6087Z" fill="black"/>
<path d="M156.201 65.6087H149.233V72.5774H156.201V65.6087Z" fill="black"/>
<path d="M163.17 65.6087H156.201V72.5774H163.17V65.6087Z" fill="black"/>
<path d="M170.139 65.6087H163.17V72.5774H170.139V65.6087Z" fill="black"/>
<path d="M16.828 72.5774H9.8593V79.546H16.828V72.5774Z" fill="black"/>
<path d="M30.7653 72.5774C26.9166 72.5774 23.7966 75.6974 23.7966 79.546H30.7653V72.5774Z" fill="black"/>
<path d="M44.7027 72.5774H37.734V79.546H44.7027V72.5774Z" fill="black"/>
<path d="M51.6713 72.5774H44.7027V79.546H51.6713V72.5774Z" fill="black"/>
<path d="M58.64 72.5774H51.6713V79.546H58.64V72.5774Z" fill="black"/>
<path d="M79.546 72.5774H72.5774V79.546H79.546V72.5774Z" fill="black"/>
<path d="M86.5147 79.546C86.5147 75.6974 83.3947 72.5774 79.546 72.5774V79.546H86.5147Z" fill="black"/>
<path d="M100.452 72.5774H93.4834V79.546H100.452V72.5774Z" fill="black"/>
<path d="M107.421 72.5774H100.452V79.546C104.301 79.546 107.421 76.4261 107.421 72.5774Z" fill="black"/>
<path d="M121.358 72.5774H114.389V79.546H121.358V72.5774Z" fill="black"/>
<path d="M128.327 79.546C128.327 75.6974 125.207 72.5774 121.358 72.5774V79.546H128.327Z" fill="black"/>
<path d="M142.264 72.5774C138.415 72.5774 135.295 75.6974 135.295 79.546H142.264V72.5774Z" fill="black"/>
<path d="M177.107 76.0617C177.107 74.1374 175.548 72.5774 173.623 72.5774H170.139V76.0617C170.139 77.9861 171.699 79.546 173.623 79.546C175.548 79.546 177.107 77.9861 177.107 76.0617Z" fill="black"/>
<path d="M9.8593 79.546C6.01061 79.546 2.89062 82.666 2.89062 86.5147H9.8593V79.546Z" fill="black"/>
<path d="M16.828 79.546H9.8593V86.5147H16.828V79.546Z" fill="black"/>
<path d="M23.7966 79.546H16.828V86.5147H23.7966V79.546Z" fill="black"/>
<path d="M37.734 79.546H30.7653V86.5147C34.614 86.5147 37.734 83.3947 37.734 79.546Z" fill="black"/>
<path d="M58.64 79.546H51.6713V86.5147H58.64V79.546Z" fill="black"/>
<path d="M79.546 79.546H72.5774V86.5147H79.546V79.546Z" fill="black"/>
<path d="M86.5147 79.546H79.546V86.5147H86.5147V79.546Z" fill="black"/>
<path d="M100.452 79.546H93.4834C93.4834 83.3947 96.6034 86.5147 100.452 86.5147V79.546Z" fill="black"/>
<path d="M121.358 79.546H114.389V86.5147H121.358V79.546Z" fill="black"/>
<path d="M135.295 79.546H128.327V86.5147H135.295V79.546Z" fill="black"/>
<path d="M149.233 86.5147C149.233 82.666 146.113 79.546 142.264 79.546V86.5147H149.233Z" fill="black"/>
<path d="M163.17 83.0304C163.17 81.106 161.61 79.546 159.686 79.546C157.761 79.546 156.201 81.106 156.201 83.0304V86.5147H163.17V83.0304Z" fill="black"/>
<path d="M9.8593 86.5147H2.89062V93.4834H9.8593V86.5147Z" fill="black"/>
<path d="M30.7653 86.5147H23.7966V93.4834H30.7653V86.5147Z" fill="black"/>
<path d="M51.6713 86.5147C47.8227 86.5147 44.7027 89.6347 44.7027 93.4834H51.6713V86.5147Z" fill="black"/>
<path d="M58.64 86.5147H51.6713V93.4834H58.64V86.5147Z" fill="black"/>
<path d="M65.6087 93.4834C65.6087 89.6347 62.4887 86.5147 58.64 86.5147V93.4834H65.6087Z" fill="black"/>
<path d="M79.546 86.5147H72.5774V93.4834H79.546V86.5147Z" fill="black"/>
<path d="M86.5147 86.5147H79.546V93.4834H86.5147V86.5147Z" fill="black"/>
<path d="M107.421 86.5147H100.452V93.4834H107.421V86.5147Z" fill="black"/>
<path d="M114.389 86.5147H107.421V93.4834H114.389V86.5147Z" fill="black"/>
<path d="M128.327 86.5147H121.358V93.4834H128.327V86.5147Z" fill="black"/>
<path d="M135.295 86.5147H128.327V93.4834H135.295V86.5147Z" fill="black"/>
<path d="M142.264 86.5147H135.295V93.4834H142.264V86.5147Z" fill="black"/>
<path d="M149.233 86.5147H142.264V93.4834H149.233V86.5147Z" fill="black"/>
<path d="M156.201 86.5147H149.233V93.4834H156.201V86.5147Z" fill="black"/>
<path d="M163.17 86.5147H156.201V93.4834H163.17V86.5147Z" fill="black"/>
<path d="M177.107 89.9991C177.107 88.0747 175.548 86.5147 173.623 86.5147C171.699 86.5147 170.139 88.0747 170.139 89.9991C170.139 91.9234 171.699 93.4834 173.623 93.4834C175.548 93.4834 177.107 91.9234 177.107 89.9991Z" fill="black"/>
<path d="M9.8593 93.4834H2.89062V96.9677C2.89062 98.8921 4.45062 100.452 6.37496 100.452C8.29931 100.452 9.8593 98.8921 9.8593 96.9677V93.4834Z" fill="black"/>
<path d="M23.7966 93.4834H20.3123C18.388 93.4834 16.828 95.0434 16.828 96.9677C16.828 98.8921 18.388 100.452 20.3123 100.452H23.7966V93.4834Z" fill="black"/>
<path d="M30.7653 93.4834H23.7966V100.452H30.7653V93.4834Z" fill="black"/>
<path d="M44.7027 93.4834C40.854 93.4834 37.734 96.6034 37.734 100.452H44.7027L44.7027 93.4834Z" fill="black"/>
<path d="M72.5774 93.4834H65.6087C65.6087 97.3321 68.7287 100.452 72.5774 100.452V93.4834Z" fill="black"/>
<path d="M79.546 93.4834H72.5774V100.452H79.546V93.4834Z" fill="black"/>
<path d="M86.5147 93.4834H79.546V100.452H86.5147V93.4834Z" fill="black"/>
<path d="M93.4834 93.4834H86.5147V100.452H93.4834V93.4834Z" fill="black"/>
<path d="M100.452 93.4834H93.4834V100.452H100.452V93.4834Z" fill="black"/>
<path d="M107.421 93.4834H100.452V100.452H107.421V93.4834Z" fill="black"/>
<path d="M121.358 93.4834H114.389V100.452C118.238 100.452 121.358 97.3321 121.358 93.4834Z" fill="black"/>
<path d="M135.295 93.4834H128.327V100.452H135.295V93.4834Z" fill="black"/>
<path d="M149.233 93.4834H142.264C142.264 97.3321 145.384 100.452 149.233 100.452V93.4834Z" fill="black"/>
<path d="M156.201 93.4834H149.233V100.452H156.201V93.4834Z" fill="black"/>
<path d="M163.17 93.4834H156.201V100.452C160.05 100.452 163.17 97.3321 163.17 93.4834Z" fill="black"/>
<path d="M30.7653 100.452H23.7966V107.421H30.7653V100.452Z" fill="black"/>
<path d="M37.734 100.452H30.7653V107.421H37.734V100.452Z" fill="black"/>
<path d="M44.7027 100.452H37.734V107.421H44.7027V100.452Z" fill="black"/>
<path d="M51.6713 103.936C51.6713 102.012 50.1114 100.452 48.187 100.452H44.7027V107.421H48.187C50.1114 107.421 51.6713 105.861 51.6713 103.936Z" fill="black"/>
<path d="M93.4834 100.452H86.5147C86.5147 104.301 89.6347 107.421 93.4834 107.421V100.452Z" fill="black"/>
<path d="M100.452 100.452H93.4834V107.421H100.452V100.452Z" fill="black"/>
<path d="M114.389 100.452H107.421V103.936C107.421 105.861 108.981 107.421 110.905 107.421C112.829 107.421 114.389 105.861 114.389 103.936V100.452Z" fill="black"/>
<path d="M135.295 100.452H128.327V107.421H135.295V100.452Z" fill="black"/>
<path d="M177.107 103.936C177.107 102.012 175.548 100.452 173.623 100.452C171.699 100.452 170.139 102.012 170.139 103.936C170.139 105.861 171.699 107.421 173.623 107.421C175.548 107.421 177.107 105.861 177.107 103.936Z" fill="black"/>
<path d="M23.7966 107.421C19.948 107.421 16.828 110.541 16.828 114.389H23.7966V107.421Z" fill="black"/>
<path d="M30.7653 107.421H23.7966V114.389H30.7653V107.421Z" fill="black"/>
<path d="M37.734 107.421H30.7653V114.389H37.734V107.421Z" fill="black"/>
<path d="M65.6087 110.905C65.6087 108.981 64.0487 107.421 62.1244 107.421C60.2 107.421 58.64 108.981 58.64 110.905V114.389H65.6087V110.905Z" fill="black"/>
<path d="M100.452 107.421H93.4834V114.389H100.452V107.421Z" fill="black"/>
<path d="M128.327 107.421C124.478 107.421 121.358 110.541 121.358 114.389H128.327V107.421Z" fill="black"/>
<path d="M142.264 114.389C142.264 110.541 139.144 107.421 135.295 107.421V114.389H142.264Z" fill="black"/>
<path d="M156.201 110.905C156.201 108.981 154.641 107.421 152.717 107.421C150.793 107.421 149.233 108.981 149.233 110.905V114.389H156.201V110.905Z" fill="black"/>
<path d="M9.8593 117.874C9.8593 115.949 8.29931 114.389 6.37496 114.389C4.45062 114.389 2.89062 115.949 2.89062 117.874C2.89062 119.798 4.45062 121.358 6.37496 121.358C8.29931 121.358 9.8593 119.798 9.8593 117.874Z" fill="black"/>
<path d="M23.7966 114.389H16.828V117.874C16.828 119.798 18.388 121.358 20.3123 121.358C22.2367 121.358 23.7966 119.798 23.7966 117.874V114.389Z" fill="black"/>
<path d="M37.734 114.389H30.7653V117.874C30.7653 119.798 32.3253 121.358 34.2497 121.358C36.174 121.358 37.734 119.798 37.734 117.874V114.389Z" fill="black"/>
<path d="M51.6713 114.389H48.187C46.2627 114.389 44.7027 115.949 44.7027 117.874C44.7027 119.798 46.2627 121.358 48.187 121.358H51.6713V114.389Z" fill="black"/>
<path d="M58.64 114.389H51.6713V121.358H58.64V114.389Z" fill="black"/>
<path d="M65.6087 114.389H58.64V121.358H65.6087V114.389Z" fill="black"/>
<path d="M72.5774 114.389H65.6087V121.358H72.5774V114.389Z" fill="black"/>
<path d="M79.546 114.389H72.5774V121.358H79.546V114.389Z" fill="black"/>
<path d="M86.5147 121.358C86.5147 117.509 83.3947 114.389 79.546 114.389V121.358H86.5147Z" fill="black"/>
<path d="M100.452 114.389H93.4834V121.358H100.452V114.389Z" fill="black"/>
<path d="M107.421 121.358C107.421 117.509 104.301 114.389 100.452 114.389V121.358H107.421Z" fill="black"/>
<path d="M121.358 114.389C117.509 114.389 114.389 117.509 114.389 121.358H121.358V114.389Z" fill="black"/>
<path d="M128.327 114.389H121.358V121.358H128.327V114.389Z" fill="black"/>
<path d="M135.295 114.389H128.327V121.358H135.295V114.389Z" fill="black"/>
<path d="M142.264 114.389H135.295V121.358H142.264V114.389Z" fill="black"/>
<path d="M149.233 114.389H142.264V121.358H149.233V114.389Z" fill="black"/>
<path d="M156.201 114.389H149.233V121.358H156.201V114.389Z" fill="black"/>
<path d="M72.5774 121.358H65.6087V128.327C69.4574 128.327 72.5774 125.207 72.5774 121.358Z" fill="black"/>
<path d="M86.5147 121.358H79.546V128.327H86.5147V121.358Z" fill="black"/>
<path d="M93.4834 121.358H86.5147V128.327H93.4834V121.358Z" fill="black"/>
<path d="M107.421 121.358H100.452V128.327H107.421V121.358Z" fill="black"/>
<path d="M114.389 121.358H107.421V128.327H114.389V121.358Z" fill="black"/>
<path d="M121.358 121.358H114.389V128.327H121.358V121.358Z" fill="black"/>
<path d="M149.233 121.358H142.264V128.327H149.233V121.358Z" fill="black"/>
<path d="M163.17 121.358H156.201V128.327H163.17V121.358Z" fill="black"/>
<path d="M170.139 128.327C170.139 124.478 167.019 121.358 163.17 121.358V128.327H170.139Z" fill="black"/>
<path d="M9.8593 128.327C6.01061 128.327 2.89062 131.447 2.89062 135.295H9.8593V128.327Z" fill="black"/>
<path d="M16.828 128.327H9.8593V135.295H16.828V128.327Z" fill="black"/>
<path d="M23.7966 128.327H16.828V135.295H23.7966V128.327Z" fill="black"/>
<path d="M30.7653 128.327H23.7966V135.295H30.7653V128.327Z" fill="black"/>
<path d="M37.734 128.327H30.7653V135.295H37.734V128.327Z" fill="black"/>
<path d="M44.7027 128.327H37.734V135.295H44.7027V128.327Z" fill="black"/>
<path d="M51.6713 135.295C51.6713 131.447 48.5514 128.327 44.7027 128.327V135.295H51.6713Z" fill="black"/>
<path d="M65.6087 128.327H62.1244C60.2 128.327 58.64 129.887 58.64 131.811C58.64 133.735 60.2 135.295 62.1244 135.295H65.6087V128.327Z" fill="black"/>
<path d="M86.5147 128.327H79.546V135.295H86.5147V128.327Z" fill="black"/>
<path d="M93.4834 128.327H86.5147V135.295H93.4834V128.327Z" fill="black"/>
<path d="M100.452 128.327H93.4834V135.295H100.452V128.327Z" fill="black"/>
<path d="M121.358 128.327H114.389V135.295H121.358V128.327Z" fill="black"/>
<path d="M135.295 131.811C135.295 129.887 133.735 128.327 131.811 128.327C129.887 128.327 128.327 129.887 128.327 131.811C128.327 133.735 129.887 135.295 131.811 135.295C133.735 135.295 135.295 133.735 135.295 131.811Z" fill="black"/>
<path d="M149.233 128.327H142.264V135.295H149.233V128.327Z" fill="black"/>
<path d="M156.201 128.327H149.233V135.295H156.201V128.327Z" fill="black"/>
<path d="M163.17 128.327H156.201V135.295H163.17V128.327Z" fill="black"/>
<path d="M170.139 128.327H163.17V135.295H170.139V128.327Z" fill="black"/>
<path d="M9.8593 135.295H2.89062V142.264H9.8593V135.295Z" fill="black"/>
<path d="M51.6713 135.295H44.7027L44.7027 142.264H51.6713V135.295Z" fill="black"/>
<path d="M72.5774 135.295H65.6087C65.6087 139.144 68.7287 142.264 72.5774 142.264V135.295Z" fill="black"/>
<path d="M79.546 135.295H72.5774V142.264C76.4261 142.264 79.546 139.144 79.546 135.295Z" fill="black"/>
<path d="M93.4834 135.295H86.5147V142.264H93.4834V135.295Z" fill="black"/>
<path d="M100.452 135.295H93.4834V142.264H100.452V135.295Z" fill="black"/>
<path d="M114.389 135.295C110.541 135.295 107.421 138.415 107.421 142.264H114.389V135.295Z" fill="black"/>
<path d="M121.358 135.295H114.389V142.264H121.358V135.295Z" fill="black"/>
<path d="M149.233 135.295H142.264V142.264H149.233V135.295Z" fill="black"/>
<path d="M177.107 142.264C177.107 138.415 173.988 135.295 170.139 135.295V142.264H177.107Z" fill="black"/>
<path d="M9.8593 142.264H2.89062V149.233H9.8593V142.264Z" fill="black"/>
<path d="M23.7966 142.264C19.948 142.264 16.828 145.384 16.828 149.233H23.7966V142.264Z" fill="black"/>
<path d="M30.7653 142.264H23.7966V149.233H30.7653V142.264Z" fill="black"/>
<path d="M37.734 149.233C37.734 145.384 34.614 142.264 30.7653 142.264V149.233H37.734Z" fill="black"/>
<path d="M51.6713 142.264H44.7027V149.233H51.6713V142.264Z" fill="black"/>
<path d="M93.4834 142.264H86.5147V149.233H93.4834V142.264Z" fill="black"/>
<path d="M100.452 142.264H93.4834V149.233H100.452V142.264Z" fill="black"/>
<path d="M107.421 142.264H100.452V149.233H107.421L107.421 142.264Z" fill="black"/>
<path d="M114.389 142.264H107.421L107.421 149.233H114.389V142.264Z" fill="black"/>
<path d="M121.358 142.264H114.389V149.233H121.358V142.264Z" fill="black"/>
<path d="M128.327 142.264H121.358V149.233H128.327V142.264Z" fill="black"/>
<path d="M135.295 142.264H128.327V149.233H135.295V142.264Z" fill="black"/>
<path d="M142.264 142.264H135.295V149.233H142.264V142.264Z" fill="black"/>
<path d="M149.233 142.264H142.264V149.233H149.233V142.264Z" fill="black"/>
<path d="M156.201 142.264H149.233V149.233H156.201V142.264Z" fill="black"/>
<path d="M163.17 142.264H156.201V149.233H163.17V142.264Z" fill="black"/>
<path d="M170.139 142.264H163.17V149.233H170.139V142.264Z" fill="black"/>
<path d="M177.107 142.264H170.139V149.233H177.107V142.264Z" fill="black"/>
<path d="M9.8593 149.233H2.89062V156.201H9.8593V149.233Z" fill="black"/>
<path d="M23.7966 149.233H16.828V156.201H23.7966V149.233Z" fill="black"/>
<path d="M30.7653 149.233H23.7966V156.201H30.7653V149.233Z" fill="black"/>
<path d="M37.734 149.233H30.7653V156.201H37.734V149.233Z" fill="black"/>
<path d="M51.6713 149.233H44.7027V156.201H51.6713V149.233Z" fill="black"/>
<path d="M65.6087 152.717C65.6087 150.793 64.0487 149.233 62.1244 149.233C60.2 149.233 58.64 150.793 58.64 152.717C58.64 154.641 60.2 156.201 62.1244 156.201C64.0487 156.201 65.6087 154.641 65.6087 152.717Z" fill="black"/>
<path d="M86.5147 149.233C82.666 149.233 79.546 152.353 79.546 156.201H86.5147V149.233Z" fill="black"/>
<path d="M121.358 149.233H114.389V156.201H121.358V149.233Z" fill="black"/>
<path d="M149.233 149.233H142.264C142.264 153.081 145.384 156.201 149.233 156.201V149.233Z" fill="black"/>
<path d="M156.201 149.233H149.233V156.201H156.201V149.233Z" fill="black"/>
<path d="M177.107 149.233H170.139V156.201H177.107V149.233Z" fill="black"/>
<path d="M9.8593 156.201H2.89062V163.17H9.8593V156.201Z" fill="black"/>
<path d="M23.7966 156.201H16.828C16.828 160.05 19.948 163.17 23.7966 163.17V156.201Z" fill="black"/>
<path d="M30.7653 156.201H23.7966V163.17H30.7653V156.201Z" fill="black"/>
<path d="M37.734 156.201H30.7653V163.17C34.614 163.17 37.734 160.05 37.734 156.201Z" fill="black"/>
<path d="M51.6713 156.201H44.7027V163.17H51.6713V156.201Z" fill="black"/>
<path d="M86.5147 156.201H79.546C79.546 160.05 82.666 163.17 86.5147 163.17V156.201Z" fill="black"/>
<path d="M93.4834 163.17C93.4834 159.321 90.3634 156.201 86.5147 156.201V163.17H93.4834Z" fill="black"/>
<path d="M107.421 159.686C107.421 157.761 105.861 156.201 103.936 156.201C102.012 156.201 100.452 157.761 100.452 159.686V163.17H107.421V159.686Z" fill="black"/>
<path d="M121.358 156.201H114.389V163.17H121.358V156.201Z" fill="black"/>
<path d="M128.327 156.201H121.358V163.17H128.327V156.201Z" fill="black"/>
<path d="M135.295 163.17C135.295 159.321 132.175 156.201 128.327 156.201V163.17H135.295Z" fill="black"/>
<path d="M156.201 156.201H149.233V163.17H156.201V156.201Z" fill="black"/>
<path d="M163.17 156.201H156.201V163.17H163.17V156.201Z" fill="black"/>
<path d="M170.139 156.201H163.17V163.17H170.139V156.201Z" fill="black"/>
<path d="M177.107 156.201H170.139V163.17H177.107V156.201Z" fill="black"/>
<path d="M9.8593 163.17H2.89062V170.139H9.8593V163.17Z" fill="black"/>
<path d="M51.6713 163.17H44.7027V170.139H51.6713V163.17Z" fill="black"/>
<path d="M65.6087 163.17C61.76 163.17 58.64 166.29 58.64 170.139H65.6087V163.17Z" fill="black"/>
<path d="M72.5774 166.654C72.5774 164.73 71.0174 163.17 69.093 163.17H65.6087V170.139H69.093C71.0174 170.139 72.5774 168.579 72.5774 166.654Z" fill="black"/>
<path d="M93.4834 163.17H86.5147V170.139H93.4834V163.17Z" fill="black"/>
<path d="M107.421 163.17H100.452V170.139H107.421V163.17Z" fill="black"/>
<path d="M121.358 163.17H114.389V170.139H121.358V163.17Z" fill="black"/>
<path d="M135.295 163.17H128.327V170.139H135.295V163.17Z" fill="black"/>
<path d="M142.264 163.17H135.295V170.139H142.264V163.17Z" fill="black"/>
<path d="M149.233 163.17H142.264V170.139H149.233V163.17Z" fill="black"/>
<path d="M156.201 163.17H149.233V170.139H156.201V163.17Z" fill="black"/>
<path d="M163.17 163.17H156.201V170.139C160.05 170.139 163.17 167.019 163.17 163.17Z" fill="black"/>
<path d="M177.107 163.17H170.139V170.139H177.107V163.17Z" fill="black"/>
<path d="M9.8593 170.139H2.89062C2.89062 173.988 6.01061 177.107 9.8593 177.107V170.139Z" fill="black"/>
<path d="M16.828 170.139H9.8593V177.107H16.828V170.139Z" fill="black"/>
<path d="M23.7966 170.139H16.828V177.107H23.7966V170.139Z" fill="black"/>
<path d="M30.7653 170.139H23.7966V177.107H30.7653V170.139Z" fill="black"/>
<path d="M37.734 170.139H30.7653V177.107H37.734V170.139Z" fill="black"/>
<path d="M44.7027 170.139H37.734V177.107H44.7027L44.7027 170.139Z" fill="black"/>
<path d="M51.6713 170.139H44.7027L44.7027 177.107C48.5514 177.107 51.6713 173.988 51.6713 170.139Z" fill="black"/>
<path d="M65.6087 170.139H58.64V173.623C58.64 175.548 60.2 177.107 62.1244 177.107C64.0487 177.107 65.6087 175.548 65.6087 173.623V170.139Z" fill="black"/>
<path d="M93.4834 170.139H86.5147C86.5147 173.988 89.6347 177.107 93.4834 177.107V170.139Z" fill="black"/>
<path d="M100.452 170.139H93.4834V177.107C97.3321 177.107 100.452 173.988 100.452 170.139Z" fill="black"/>
<path d="M114.389 170.139H107.421C107.421 173.988 110.541 177.107 114.389 177.107V170.139Z" fill="black"/>
<path d="M121.358 170.139H114.389V177.107H121.358V170.139Z" fill="black"/>
<path d="M128.327 170.139H121.358V177.107H128.327V170.139Z" fill="black"/>
<path d="M135.295 170.139H128.327V177.107H135.295V170.139Z" fill="black"/>
<path d="M142.264 170.139H135.295V177.107C139.144 177.107 142.264 173.988 142.264 170.139Z" fill="black"/>
<path d="M156.201 170.139H149.233V173.623C149.233 175.548 150.793 177.107 152.717 177.107C154.641 177.107 156.201 175.548 156.201 173.623V170.139Z" fill="black"/>
<path d="M177.107 170.139H170.139V173.623C170.139 175.548 171.699 177.107 173.623 177.107C175.548 177.107 177.107 175.548 177.107 173.623V170.139Z" fill="black"/>
</g>
<defs>
<clipPath id="clip0_1186_11569">
<rect width="180" height="180" fill="white"/>
</clipPath>
</defs>
</svg>
