<svg width="49" height="64" viewBox="0 0 49 64" fill="none" xmlns="http://www.w3.org/2000/svg">
<circle cx="17" cy="32" r="32" fill="white"/>
<path fill-rule="evenodd" clip-rule="evenodd" d="M9.18134 17.74L21.684 16.4259C26.2921 15.9416 29.137 18.3272 29.6153 22.8772L31.2349 38.2873C31.721 42.9118 29.4279 45.7772 24.8198 46.2615L12.3172 47.5756C7.78217 48.0523 4.86889 45.7341 4.38284 41.1096L2.76317 25.6995C2.28495 21.1495 4.64632 18.2166 9.18134 17.74ZM10.3148 24.6493L10.3132 24.6344L14.7721 24.1658C15.4151 24.0982 15.9921 24.5654 16.0594 25.2054C16.1285 25.8633 15.6613 26.4403 15.0183 26.5079L10.5594 26.9765C9.91641 27.0441 9.3409 26.5767 9.27348 25.9352C9.20606 25.2938 9.67181 24.7169 10.3148 24.6493ZM11.2681 33.7194L22.9636 32.4901C23.6051 32.4227 24.0724 31.8457 24.0049 31.2042C23.9375 30.5628 23.3604 30.094 22.7189 30.1615L11.0233 31.3907C10.3804 31.4583 9.91476 32.0366 9.98218 32.6781C10.0496 33.3196 10.6251 33.787 11.2681 33.7194ZM11.9846 40.5368L23.6802 39.3076C24.2691 39.1853 24.6647 38.6295 24.6021 38.0342C24.5379 37.4226 24.0355 36.9626 23.434 36.9655L11.7384 38.1947C11.2862 38.197 10.8755 38.4513 10.6776 38.8643C10.4781 39.2623 10.5299 39.7546 10.8093 40.1174C11.0872 40.4652 11.5434 40.6435 11.9846 40.5368Z" fill="url(#paint0_radial_3436_75012)"/>
<defs>
<radialGradient id="paint0_radial_3436_75012" cx="0" cy="0" r="1" gradientUnits="userSpaceOnUse" gradientTransform="translate(21.655 25.3552) rotate(120.198) scale(23.4833 22.8641)">
<stop stop-color="#E1BAAC"/>
<stop offset="1" stop-color="#C98269"/>
</radialGradient>
</defs>
</svg>
