<svg width="24" height="24" viewBox="0 0 24 24" fill="none" xmlns="http://www.w3.org/2000/svg">
<path d="M16.889 0.332031H7.11232C2.86565 0.332031 0.333984 2.8637 0.333984 7.11036V16.8754C0.333984 21.1337 2.86565 23.6654 7.11232 23.6654H16.8773C21.124 23.6654 23.6556 21.1337 23.6556 16.887V7.11036C23.6673 2.8637 21.1357 0.332031 16.889 0.332031ZM12.0007 16.5254C9.50398 16.5254 7.47398 14.4954 7.47398 11.9987C7.47398 9.50203 9.50398 7.47203 12.0007 7.47203C14.4973 7.47203 16.5273 9.50203 16.5273 11.9987C16.5273 14.4954 14.4973 16.5254 12.0007 16.5254ZM18.9073 6.02536C18.849 6.16536 18.7673 6.2937 18.6623 6.41036C18.5456 6.51536 18.4173 6.59703 18.2773 6.65536C18.1373 6.7137 17.9857 6.7487 17.834 6.7487C17.519 6.7487 17.2273 6.63203 17.0057 6.41036C16.9007 6.2937 16.819 6.16536 16.7607 6.02536C16.7023 5.88536 16.6673 5.7337 16.6673 5.58203C16.6673 5.43036 16.7023 5.2787 16.7607 5.1387C16.819 4.98703 16.9007 4.87036 17.0057 4.7537C17.274 4.48536 17.6823 4.35703 18.0557 4.4387C18.1373 4.45036 18.2073 4.4737 18.2773 4.5087C18.3473 4.53203 18.4173 4.56703 18.4873 4.6137C18.5457 4.6487 18.604 4.70703 18.6623 4.7537C18.7673 4.87036 18.849 4.98703 18.9073 5.1387C18.9657 5.2787 19.0007 5.43036 19.0007 5.58203C19.0007 5.7337 18.9657 5.88536 18.9073 6.02536Z" fill="url(#paint0_linear_3517_26234)"/>
<defs>
<linearGradient id="paint0_linear_3517_26234" x1="11.9948" y1="0.332031" x2="11.9948" y2="23.6654" gradientUnits="userSpaceOnUse">
<stop stop-color="#07B6B0"/>
<stop offset="1" stop-color="#069D98"/>
</linearGradient>
</defs>
</svg>
