<svg width="24" height="24" viewBox="0 0 24 24" fill="none" xmlns="http://www.w3.org/2000/svg">
<mask id="path-1-inside-1_3517_26226" fill="white">
<path d="M14.2231 10.2131L22.9104 0.332031H20.8521L13.3055 8.90988L7.28245 0.332031H0.333984L9.44405 13.3044L0.333984 23.6654H2.39232L10.3568 14.6048L16.7189 23.6654H23.6673L14.2231 10.2131ZM11.403 13.4183L10.4786 12.1257L3.13461 1.85041H6.29663L12.2252 10.146L13.1457 11.4386L20.8511 22.221H17.6891L11.403 13.4183Z"/>
</mask>
<path d="M14.2231 10.2131L22.9104 0.332031H20.8521L13.3055 8.90988L7.28245 0.332031H0.333984L9.44405 13.3044L0.333984 23.6654H2.39232L10.3568 14.6048L16.7189 23.6654H23.6673L14.2231 10.2131ZM11.403 13.4183L10.4786 12.1257L3.13461 1.85041H6.29663L12.2252 10.146L13.1457 11.4386L20.8511 22.221H17.6891L11.403 13.4183Z" fill="url(#paint0_linear_3517_26226)"/>
<path d="M14.2231 10.2131L11.2191 7.57202L9.14098 9.93567L10.9494 12.5115L14.2231 10.2131ZM22.9104 0.332031L25.9145 2.97316L31.7532 -3.66797H22.9104V0.332031ZM20.8521 0.332031V-3.66797H19.0435L17.8489 -2.3101L20.8521 0.332031ZM13.3055 8.90988L10.0319 11.2085L12.9521 15.3673L16.3087 11.552L13.3055 8.90988ZM7.28245 0.332031L10.5561 -1.96657L9.36139 -3.66797H7.28245V0.332031ZM0.333984 0.332031V-3.66797H-7.36291L-2.93945 2.63086L0.333984 0.332031ZM9.44405 13.3044L12.448 15.9457L14.5266 13.5817L12.7175 11.0056L9.44405 13.3044ZM0.333984 23.6654L-2.66996 21.0241L-8.50942 27.6654H0.333984V23.6654ZM2.39232 23.6654V27.6654H4.20191L5.39663 26.3062L2.39232 23.6654ZM10.3568 14.6048L13.6304 12.3062L10.7089 8.14551L7.3525 11.9639L10.3568 14.6048ZM16.7189 23.6654L13.4453 25.964L14.6399 27.6654H16.7189V23.6654ZM23.6673 23.6654V27.6654H31.3629L26.9411 21.367L23.6673 23.6654ZM11.403 13.4183L14.6582 11.0937L14.6565 11.0913L11.403 13.4183ZM10.4786 12.1257L7.22431 14.4516L7.22506 14.4527L10.4786 12.1257ZM3.13461 1.85041V-2.14959H-4.64089L-0.119659 4.17629L3.13461 1.85041ZM6.29663 1.85041L9.55099 -0.475361L8.35447 -2.14959H6.29663V1.85041ZM12.2252 10.146L15.4834 7.82556L15.4795 7.82022L12.2252 10.146ZM13.1457 11.4386L9.88758 13.759L9.89133 13.7642L13.1457 11.4386ZM20.8511 22.221V26.221H28.626L24.1055 19.8953L20.8511 22.221ZM17.6891 22.221L14.4339 24.5455L15.6303 26.221H17.6891V22.221ZM17.2272 12.8543L25.9145 2.97316L19.9063 -2.30909L11.2191 7.57202L17.2272 12.8543ZM22.9104 -3.66797H20.8521V4.33203H22.9104V-3.66797ZM17.8489 -2.3101L10.3023 6.26774L16.3087 11.552L23.8553 2.97416L17.8489 -2.3101ZM16.5791 6.61128L10.5561 -1.96657L4.00886 2.63063L10.0319 11.2085L16.5791 6.61128ZM7.28245 -3.66797H0.333984V4.33203H7.28245V-3.66797ZM-2.93945 2.63086L6.17061 15.6032L12.7175 11.0056L3.60742 -1.96679L-2.93945 2.63086ZM6.4401 10.6631L-2.66996 21.0241L3.33793 26.3066L12.448 15.9457L6.4401 10.6631ZM0.333984 27.6654H2.39232V19.6654H0.333984V27.6654ZM5.39663 26.3062L13.3611 17.2456L7.3525 11.9639L-0.611988 21.0245L5.39663 26.3062ZM7.08321 16.9034L13.4453 25.964L19.9924 21.3668L13.6304 12.3062L7.08321 16.9034ZM16.7189 27.6654H23.6673V19.6654H16.7189V27.6654ZM26.9411 21.367L17.4969 7.91479L10.9494 12.5115L20.3936 25.9637L26.9411 21.367ZM14.6565 11.0913L13.7321 9.79878L7.22506 14.4527L8.14951 15.7452L14.6565 11.0913ZM13.7328 9.79983L6.38887 -0.475481L-0.119659 4.17629L7.22431 14.4516L13.7328 9.79983ZM3.13461 5.85041H6.29663V-2.14959H3.13461V5.85041ZM3.04228 4.17617L8.97084 12.4718L15.4795 7.82022L9.55099 -0.475361L3.04228 4.17617ZM8.96703 12.4664L9.88758 13.759L16.4039 9.11813L15.4833 7.82556L8.96703 12.4664ZM9.89133 13.7642L17.5967 24.5466L24.1055 19.8953L16.4002 9.11287L9.89133 13.7642ZM20.8511 18.221H17.6891V26.221H20.8511V18.221ZM20.9443 19.8964L14.6582 11.0937L8.14781 15.7429L14.4339 24.5455L20.9443 19.8964Z" fill="url(#paint1_linear_3517_26226)" mask="url(#path-1-inside-1_3517_26226)"/>
<defs>
<linearGradient id="paint0_linear_3517_26226" x1="12.0007" y1="0.332031" x2="12.0007" y2="23.6654" gradientUnits="userSpaceOnUse">
<stop stop-color="#07B6B0"/>
<stop offset="1" stop-color="#069D98"/>
</linearGradient>
<linearGradient id="paint1_linear_3517_26226" x1="12.0007" y1="0.332031" x2="12.0007" y2="23.6654" gradientUnits="userSpaceOnUse">
<stop stop-color="#07B6B0"/>
<stop offset="1" stop-color="#069D98"/>
</linearGradient>
</defs>
</svg>
